<svg width="600" height="200" viewBox="0 0 600 200" fill="none" xmlns="http://www.w3.org/2000/svg">
<g clip-path="url(#clip0_1_2)">
<rect width="600" height="200" fill="#1E1E2E"/>
<path d="M57.4019 112.305C57.6952 115.935 58.5202 118.887 59.8769 121.16C61.2702 123.433 63.0485 125.102 65.2119 126.165C67.3752 127.228 69.7769 127.76 72.4169 127.76C75.2035 127.76 77.8252 127.32 80.2819 126.44C82.7385 125.56 85.1585 124.332 87.5419 122.755L93.5919 131.06C90.8785 133.333 87.6335 135.167 83.8569 136.56C80.1169 137.953 75.9919 138.65 71.4819 138.65C65.1752 138.65 59.8585 137.348 55.5319 134.745C51.2419 132.142 47.9969 128.53 45.7969 123.91C43.5969 119.29 42.4969 113.973 42.4969 107.96C42.4969 102.167 43.5785 96.9417 45.7419 92.285C47.9052 87.6283 51.0219 83.9433 55.0919 81.23C59.1619 78.48 64.0752 77.105 69.8319 77.105C75.1852 77.105 79.8052 78.2783 83.6919 80.625C87.5785 82.9717 90.5852 86.345 92.7119 90.745C94.8385 95.1083 95.9019 100.37 95.9019 106.53C95.9019 107.52 95.8652 108.528 95.7919 109.555C95.7552 110.582 95.7002 111.498 95.6269 112.305H57.4019ZM69.8869 87.335C66.3669 87.335 63.4702 88.6 61.1969 91.13C58.9602 93.6233 57.6402 97.5833 57.2369 103.01H81.7669C81.6935 98.0967 80.6669 94.265 78.6869 91.515C76.7435 88.7283 73.8102 87.335 69.8869 87.335ZM111.919 112.745V101.195H158.339V112.745H111.919ZM218.356 77.105C220.849 77.105 222.976 77.6367 224.736 78.7C226.496 79.7267 227.853 81.4683 228.806 83.925C229.759 86.345 230.236 89.645 230.236 93.825V137H217.586V95.64C217.586 93 217.366 91.13 216.926 90.03C216.523 88.93 215.588 88.38 214.121 88.38C212.911 88.38 211.683 88.7467 210.436 89.48C209.226 90.1767 207.961 91.4417 206.641 93.275V137H195.696V95.64C195.696 93 195.476 91.13 195.036 90.03C194.633 88.93 193.698 88.38 192.231 88.38C190.984 88.38 189.756 88.7467 188.546 89.48C187.336 90.1767 186.071 91.4417 184.751 93.275V137H171.936V78.755H182.771L183.706 84.805C185.429 82.385 187.244 80.4967 189.151 79.14C191.058 77.7833 193.349 77.105 196.026 77.105C198.226 77.105 200.169 77.655 201.856 78.755C203.579 79.8183 204.808 81.6517 205.541 84.255C207.228 82.1283 209.116 80.405 211.206 79.085C213.296 77.765 215.679 77.105 218.356 77.105ZM289.373 121.655C289.373 123.892 289.703 125.523 290.363 126.55C291.023 127.54 292.086 128.292 293.553 128.805L290.418 138.54C287.301 138.21 284.643 137.44 282.443 136.23C280.28 134.983 278.611 133.132 277.438 130.675C275.238 133.352 272.451 135.35 269.078 136.67C265.741 137.99 262.24 138.65 258.573 138.65C252.633 138.65 247.921 136.963 244.438 133.59C240.955 130.217 239.213 125.835 239.213 120.445C239.213 114.248 241.633 109.482 246.473 106.145C251.35 102.772 258.243 101.085 267.153 101.085H275.293V97.95C275.293 94.5033 274.23 92.01 272.103 90.47C269.976 88.8933 266.915 88.105 262.918 88.105C261.048 88.105 258.701 88.3617 255.878 88.875C253.091 89.3517 250.213 90.1033 247.243 91.13L243.778 81.175C247.481 79.7817 251.203 78.755 254.943 78.095C258.72 77.435 262.148 77.105 265.228 77.105C273.405 77.105 279.473 78.8467 283.433 82.33C287.393 85.7767 289.373 90.6717 289.373 97.015V121.655ZM263.303 128.145C265.503 128.145 267.721 127.522 269.958 126.275C272.231 125.028 274.01 123.287 275.293 121.05V109.72H269.573C264.183 109.72 260.278 110.582 257.858 112.305C255.475 114.028 254.283 116.467 254.283 119.62C254.283 122.333 255.053 124.442 256.593 125.945C258.133 127.412 260.37 128.145 263.303 128.145ZM309.405 137V126.935H317.6V88.765H309.405V78.755H328.655L331.35 92.12C333.477 87.17 336.153 83.4483 339.38 80.955C342.607 78.425 346.658 77.16 351.535 77.16C353.405 77.16 355.055 77.3067 356.485 77.6C357.952 77.8933 359.345 78.2783 360.665 78.755L356.32 90.965C355.183 90.6717 354.102 90.4517 353.075 90.305C352.048 90.1217 350.893 90.03 349.61 90.03C345.577 90.03 342.057 91.6067 339.05 94.76C336.08 97.8767 333.77 102.112 332.12 107.465V126.935H343.725V137H309.405ZM348.4 101.47V86.015L350.38 78.755H360.665L358.08 101.47H348.4ZM393.457 59.285L405.777 63.96L386.967 109.115H425.852V120.17H371.897V110.27L393.457 59.285ZM417.492 89.645V137H403.522L403.357 110.875L405.227 89.645H417.492ZM464.914 59.285C473.677 59.285 480.296 62.75 484.769 69.68C489.242 76.5733 491.479 86.29 491.479 98.83C491.479 111.407 489.242 121.197 484.769 128.2C480.296 135.167 473.677 138.65 464.914 138.65C456.114 138.65 449.477 135.167 445.004 128.2C440.567 121.197 438.349 111.407 438.349 98.83C438.349 86.29 440.567 76.5733 445.004 69.68C449.477 62.75 456.114 59.285 464.914 59.285ZM464.914 70.065C460.771 70.065 457.636 72.2833 455.509 76.72C453.419 81.12 452.374 88.49 452.374 98.83C452.374 104.55 452.576 109.298 452.979 113.075C453.419 116.815 454.134 119.767 455.124 121.93C456.114 124.093 457.397 125.633 458.974 126.55C460.587 127.43 462.567 127.87 464.914 127.87C467.701 127.87 470.011 126.935 471.844 125.065C473.714 123.158 475.107 120.078 476.024 115.825C476.941 111.535 477.399 105.87 477.399 98.83C477.399 91.35 476.996 85.52 476.189 81.34C475.419 77.16 474.117 74.245 472.284 72.595C470.487 70.9083 468.031 70.065 464.914 70.065ZM474.429 72.54L478.169 81.56L456.499 126L452.044 118.63L474.429 72.54ZM525.371 59.285L537.691 63.96L518.881 109.115H557.766V120.17H503.811V110.27L525.371 59.285ZM549.406 89.645V137H535.436L535.271 110.875L537.141 89.645H549.406Z" fill="#F5C2E7"/>
</g>
<defs>
<clipPath id="clip0_1_2">
<rect width="600" height="200" fill="white"/>
</clipPath>
</defs>
</svg>
